#N canvas 447 77 424 500 10;
#X obj 48 7 inlet~;
#X obj 250 65 dbtorms;
#X obj 250 102 moses;
#X obj 277 200 swap;
#X obj 277 222 /;
#X obj 250 134 moses 0;
#X obj 250 244 f;
#X text 292 22 agc target;
#X obj 250 178 1;
#X obj 250 158 t b;
#X obj 250 331 pack f f;
#X obj 298 44 loadbang;
#X obj 295 277 loadbang;
#X text 321 307 AGC attack;
#X msg 250 358 \$1 \$2;
#X obj 250 385 vline~;
#X obj 46 416 *~;
#X obj 46 444 outlet~;
#X floatatom 355 137 5 0 0 0 - - -;
#X obj 250 45 env~ 64;
#X obj 47 44 delwrite~ \$0-sampleDelay 1.46;
#X obj 47 68 delread~ \$0-sampleDelay 1.46;
#X msg 298 66 0.1;
#X msg 295 304 10;
#X connect 0 0 19 0;
#X connect 0 0 20 0;
#X connect 1 0 2 0;
#X connect 1 0 18 0;
#X connect 2 0 5 0;
#X connect 2 1 3 0;
#X connect 3 0 4 0;
#X connect 3 1 4 1;
#X connect 4 0 6 0;
#X connect 5 0 9 0;
#X connect 6 0 10 0;
#X connect 8 0 6 0;
#X connect 9 0 8 0;
#X connect 10 0 14 0;
#X connect 11 0 22 0;
#X connect 12 0 23 0;
#X connect 14 0 15 0;
#X connect 15 0 16 1;
#X connect 16 0 17 0;
#X connect 19 0 1 0;
#X connect 21 0 16 0;
#X connect 22 0 3 1;
#X connect 22 0 2 1;
#X connect 23 0 10 1;
