#N canvas 99 77 1354 806 10;
#X obj 175 365 tgl 15 0 empty empty empty 17 7 0 10 -262144 -1 -1 0
1;
#X obj 478 -95 delread~ a;
#X msg 626 -162 2;
#X msg 636 -152 3;
#X msg 646 -142 5;
#X msg 656 -132 7;
#X msg 666 -122 11;
#X msg 676 -112 13;
#X msg 686 -102 17;
#X msg 696 -92 19;
#X msg 706 -82 23;
#X msg 716 -72 29;
#X msg 726 -62 31;
#X msg 736 -52 37;
#X msg 746 -42 41;
#X msg 756 -32 43;
#X msg 766 -22 47;
#X msg 776 -12 53;
#X obj 604 -124 pow 1;
#X obj 614 -114 pow 1;
#X obj 624 -104 pow 1;
#X obj 634 -94 pow 1;
#X obj 644 -84 pow 1;
#X obj 654 -74 pow 1;
#X obj 664 -64 pow 1;
#X obj 674 -54 pow 1;
#X obj 684 -44 pow 1;
#X obj 694 -34 pow 1;
#X obj 704 -24 pow 1;
#X obj 714 -14 pow 1;
#X obj 724 -4 pow 1;
#X obj 734 6 pow 1;
#X obj 744 16 pow 1;
#X obj 754 26 pow 1;
#X obj 488 -85 delread~ b;
#X obj 498 -75 delread~ c;
#X obj 508 -65 delread~ d;
#X obj 518 -55 delread~ e;
#X obj 528 -45 delread~ f;
#X obj 538 -35 delread~ g;
#X obj 548 -25 delread~ h;
#X obj 558 -15 delread~ i;
#X obj 568 -5 delread~ l;
#X obj 578 5 delread~ m;
#X obj 588 15 delread~ n;
#X obj 598 25 delread~ o;
#X obj 608 35 delread~ p;
#X obj 618 45 delread~ q;
#X obj 628 55 delread~ r;
#X obj 143 355 delwrite~ a 2000;
#X obj 153 365 delwrite~ b 2000;
#X obj 163 375 delwrite~ c 2000;
#X obj 173 385 delwrite~ d 2000;
#X obj 183 395 delwrite~ e 2000;
#X obj 193 405 delwrite~ f 2000;
#X obj 203 415 delwrite~ g 2000;
#X obj 213 425 delwrite~ h 2000;
#X obj 223 435 delwrite~ i 2000;
#X obj 233 445 delwrite~ l 2000;
#X obj 243 455 delwrite~ m 2000;
#X obj 253 465 delwrite~ n 2000;
#X obj 263 475 delwrite~ o 2000;
#X obj 273 485 delwrite~ p 2000;
#X obj 283 495 delwrite~ q 2000;
#X obj 293 505 delwrite~ r 2000;
#X obj 173 151 * 0.25;
#X obj 739 55 s lengths;
#X obj 373 424 lop~ 20000;
#X obj 363 414 lop~ 20000;
#X obj 353 404 lop~ 20000;
#X obj 343 394 lop~ 20000;
#X obj 333 384 lop~ 20000;
#X obj 323 374 lop~ 20000;
#X obj 313 364 lop~ 20000;
#X obj 303 354 lop~ 20000;
#X obj 293 344 lop~ 20000;
#X obj 283 334 lop~ 20000;
#X obj 273 324 lop~ 20000;
#X obj 263 314 lop~ 20000;
#X obj 253 304 lop~ 20000;
#X obj 243 294 lop~ 20000;
#X obj 233 284 lop~ 20000;
#X text 797 -172 exponent for co-prime delay lengths;
#N canvas 60 134 1323 631 hadamard16x16 0;
#X obj -790 114 inlet~;
#X obj -746 113 inlet~;
#X obj -699 114 inlet~;
#X obj -650 114 inlet~;
#X obj -503 111 inlet~;
#X obj -459 110 inlet~;
#X obj -412 111 inlet~;
#X obj -363 111 inlet~;
#X obj -210 106 inlet~;
#X obj -166 105 inlet~;
#X obj -119 106 inlet~;
#X obj -70 106 inlet~;
#X obj 173 104 inlet~;
#X obj 217 103 inlet~;
#X obj 264 104 inlet~;
#X obj 313 104 inlet~;
#X obj -845 114 inlet;
#X obj -767 235 +~;
#X obj -708 237 +~;
#X obj -467 239 +~;
#X obj -767 312 +~;
#X obj -377 309 -~;
#X obj -172 312 +~;
#X obj 265 313 -~;
#X obj -143 240 -~;
#X obj -83 239 -~;
#X obj 204 236 -~;
#X obj 264 235 -~;
#X obj -407 238 +~;
#X obj -767 356 +~;
#X obj -676 356 -~;
#X obj -468 356 +~;
#X obj -378 356 -~;
#X obj -172 365 +~;
#X obj -82 365 -~;
#X obj 175 354 +~;
#X obj 265 354 -~;
#X obj -767 408 +~;
#X obj -707 407 +~;
#X obj -737 409 -~;
#X obj -677 408 -~;
#X obj -469 407 +~;
#X obj -409 406 +~;
#X obj -439 408 -~;
#X obj -379 407 -~;
#X obj -172 412 +~;
#X obj -112 411 +~;
#X obj -142 413 -~;
#X obj -82 412 -~;
#X obj 175 409 +~;
#X obj 236 408 +~;
#X obj 205 410 -~;
#X obj 265 409 -~;
#X obj -738 236 +~;
#X obj -674 239 +~;
#X obj -437 240 +~;
#X obj -377 239 +~;
#X obj -173 239 -~;
#X obj -113 238 -~;
#X obj 174 235 -~;
#X obj 234 234 -~;
#X obj -737 313 +~;
#X obj -407 308 -~;
#X obj -142 313 +~;
#X obj 235 312 -~;
#X obj -707 311 +~;
#X obj -675 312 +~;
#X obj -467 309 -~;
#X obj -437 310 -~;
#X obj -112 311 +~;
#X obj -83 312 +~;
#X obj 175 313 -~;
#X obj 205 314 -~;
#X obj -737 357 +~;
#X obj -707 355 -~;
#X obj -438 357 +~;
#X obj -408 355 -~;
#X obj -142 366 +~;
#X obj -112 364 -~;
#X obj 205 355 +~;
#X obj 235 353 -~;
#X obj -766 146 *~;
#X obj -739 146 *~;
#X obj -707 146 *~;
#X obj -673 144 *~;
#X obj -469 141 *~;
#X obj -437 140 *~;
#X obj -407 140 *~;
#X obj -377 140 *~;
#X obj -174 136 *~;
#X obj -144 137 *~;
#X obj -115 136 *~;
#X obj -84 134 *~;
#X obj 174 132 *~;
#X obj 204 132 *~;
#X obj 235 131 *~;
#X obj 263 130 *~;
#X obj -767 484 outlet~;
#X obj -737 509 outlet~;
#X obj -705 531 outlet~;
#X obj -675 554 outlet~;
#X obj -469 486 outlet~;
#X obj -442 508 outlet~;
#X obj -408 535 outlet~;
#X obj -377 556 outlet~;
#X obj -171 479 outlet~;
#X obj -142 501 outlet~;
#X obj -113 527 outlet~;
#X obj -80 549 outlet~;
#X obj 174 487 outlet~;
#X obj 206 508 outlet~;
#X obj 235 530 outlet~;
#X obj 265 552 outlet~;
#X obj -304 354 s target;
#X obj -304 307 loadbang;
#X msg -304 331 0.1;
#X obj -171 437 atc-AGCvanilla;
#X obj -141 459 atc-AGCvanilla;
#X obj -112 479 atc-AGCvanilla;
#X obj -80 505 atc-AGCvanilla;
#X obj 175 439 atc-AGCvanilla;
#X obj 206 466 atc-AGCvanilla;
#X obj 236 487 atc-AGCvanilla;
#X obj 266 509 atc-AGCvanilla;
#X obj -469 435 atc-AGCvanilla;
#X obj -441 458 atc-AGCvanilla;
#X obj -409 480 atc-AGCvanilla;
#X obj -378 509 atc-AGCvanilla;
#X obj -768 436 atc-AGCvanilla;
#X obj -738 460 atc-AGCvanilla;
#X obj -706 483 atc-AGCvanilla;
#X obj -676 509 atc-AGCvanilla;
#X text -789 33 Hadamard matrix implemented with "butterfly" algorithm:
series of block sums and differences in which the block size decreases
by a factor of 2 each stage.;
#X connect 0 0 81 0;
#X connect 1 0 82 0;
#X connect 2 0 83 0;
#X connect 3 0 84 0;
#X connect 4 0 85 0;
#X connect 5 0 86 0;
#X connect 6 0 87 0;
#X connect 7 0 88 0;
#X connect 8 0 89 0;
#X connect 9 0 90 0;
#X connect 10 0 91 0;
#X connect 11 0 92 0;
#X connect 12 0 93 0;
#X connect 13 0 94 0;
#X connect 14 0 95 0;
#X connect 15 0 96 0;
#X connect 16 0 81 1;
#X connect 16 0 82 1;
#X connect 16 0 83 1;
#X connect 16 0 84 1;
#X connect 16 0 85 1;
#X connect 16 0 86 1;
#X connect 16 0 87 1;
#X connect 16 0 88 1;
#X connect 16 0 89 1;
#X connect 16 0 90 1;
#X connect 16 0 91 1;
#X connect 16 0 92 1;
#X connect 16 0 93 1;
#X connect 16 0 94 1;
#X connect 16 0 95 1;
#X connect 16 0 96 1;
#X connect 17 0 20 0;
#X connect 17 0 67 1;
#X connect 18 0 62 1;
#X connect 18 0 65 0;
#X connect 19 0 20 1;
#X connect 19 0 67 0;
#X connect 20 0 29 0;
#X connect 20 0 74 1;
#X connect 21 0 32 0;
#X connect 21 0 75 1;
#X connect 22 0 33 0;
#X connect 22 0 78 1;
#X connect 23 0 36 0;
#X connect 23 0 79 1;
#X connect 24 0 63 0;
#X connect 24 0 72 1;
#X connect 25 0 23 1;
#X connect 25 0 70 0;
#X connect 26 0 63 1;
#X connect 26 0 72 0;
#X connect 27 0 23 0;
#X connect 27 0 70 1;
#X connect 28 0 62 0;
#X connect 28 0 65 1;
#X connect 29 0 37 0;
#X connect 29 0 39 1;
#X connect 30 0 40 0;
#X connect 30 0 38 1;
#X connect 31 0 41 0;
#X connect 31 0 43 1;
#X connect 32 0 44 0;
#X connect 32 0 42 1;
#X connect 33 0 45 0;
#X connect 33 0 47 1;
#X connect 34 0 48 0;
#X connect 34 0 46 1;
#X connect 35 0 49 0;
#X connect 35 0 51 1;
#X connect 36 0 52 0;
#X connect 36 0 50 1;
#X connect 37 0 128 0;
#X connect 38 0 130 0;
#X connect 39 0 129 0;
#X connect 40 0 131 0;
#X connect 41 0 124 0;
#X connect 42 0 126 0;
#X connect 43 0 125 0;
#X connect 44 0 127 0;
#X connect 45 0 116 0;
#X connect 46 0 118 0;
#X connect 47 0 117 0;
#X connect 48 0 119 0;
#X connect 49 0 120 0;
#X connect 50 0 122 0;
#X connect 51 0 121 0;
#X connect 52 0 123 0;
#X connect 53 0 61 0;
#X connect 53 0 68 1;
#X connect 54 0 21 1;
#X connect 54 0 66 0;
#X connect 55 0 61 1;
#X connect 55 0 68 0;
#X connect 56 0 21 0;
#X connect 56 0 66 1;
#X connect 57 0 22 0;
#X connect 57 0 71 1;
#X connect 58 0 64 1;
#X connect 58 0 69 0;
#X connect 59 0 22 1;
#X connect 59 0 71 0;
#X connect 60 0 64 0;
#X connect 60 0 69 1;
#X connect 61 0 30 1;
#X connect 61 0 73 0;
#X connect 62 0 31 1;
#X connect 62 0 76 0;
#X connect 63 0 34 1;
#X connect 63 0 77 0;
#X connect 64 0 35 1;
#X connect 64 0 80 0;
#X connect 65 0 29 1;
#X connect 65 0 74 0;
#X connect 66 0 30 0;
#X connect 66 0 73 1;
#X connect 67 0 31 0;
#X connect 67 0 76 1;
#X connect 68 0 32 1;
#X connect 68 0 75 0;
#X connect 69 0 33 1;
#X connect 69 0 78 0;
#X connect 70 0 34 0;
#X connect 70 0 77 1;
#X connect 71 0 35 0;
#X connect 71 0 80 1;
#X connect 72 0 36 1;
#X connect 72 0 79 0;
#X connect 73 0 39 0;
#X connect 73 0 37 1;
#X connect 74 0 38 0;
#X connect 74 0 40 1;
#X connect 75 0 43 0;
#X connect 75 0 41 1;
#X connect 76 0 42 0;
#X connect 76 0 44 1;
#X connect 77 0 47 0;
#X connect 77 0 45 1;
#X connect 78 0 46 0;
#X connect 78 0 48 1;
#X connect 79 0 51 0;
#X connect 79 0 49 1;
#X connect 80 0 50 0;
#X connect 80 0 52 1;
#X connect 81 0 17 0;
#X connect 81 0 57 1;
#X connect 82 0 24 1;
#X connect 82 0 53 0;
#X connect 83 0 18 0;
#X connect 83 0 58 1;
#X connect 84 0 25 1;
#X connect 84 0 54 0;
#X connect 85 0 19 0;
#X connect 85 0 59 1;
#X connect 86 0 26 1;
#X connect 86 0 55 0;
#X connect 87 0 28 0;
#X connect 87 0 60 1;
#X connect 88 0 56 0;
#X connect 88 0 27 1;
#X connect 89 0 17 1;
#X connect 89 0 57 0;
#X connect 90 0 24 0;
#X connect 90 0 53 1;
#X connect 91 0 18 1;
#X connect 91 0 58 0;
#X connect 92 0 54 1;
#X connect 92 0 25 0;
#X connect 93 0 59 0;
#X connect 93 0 19 1;
#X connect 94 0 26 0;
#X connect 94 0 55 1;
#X connect 95 0 60 0;
#X connect 95 0 28 1;
#X connect 96 0 27 0;
#X connect 96 0 56 1;
#X connect 114 0 115 0;
#X connect 115 0 113 0;
#X connect 116 0 105 0;
#X connect 117 0 106 0;
#X connect 118 0 107 0;
#X connect 119 0 108 0;
#X connect 120 0 109 0;
#X connect 121 0 110 0;
#X connect 122 0 111 0;
#X connect 123 0 112 0;
#X connect 124 0 101 0;
#X connect 125 0 102 0;
#X connect 126 0 103 0;
#X connect 127 0 104 0;
#X connect 128 0 97 0;
#X connect 129 0 98 0;
#X connect 130 0 99 0;
#X connect 131 0 100 0;
#X restore 224 198 pd hadamard16x16;
#X obj 539 139 *~;
#X obj 580 138 *~;
#X obj 619 136 *~;
#X obj 653 138 *~;
#X msg 786 -192 0.251969;
#X obj 173 104 loadbang;
#X msg 173 128 2;
#X obj 539 339 - 1;
#X obj 539 364 abs;
#X obj 539 311 / 10000;
#X obj 223 274 lop~ 20000;
#X obj 539 388 pow 2;
#X obj 539 463 line;
#X obj 86 281 *~ 0.2;
#X obj 849 89 loadbang;
#X msg 849 112 1;
#X obj 539 196 atc-centroid1024-vanilla;
#X obj 539 230 sig~;
#X obj 539 257 lop~ 0.15;
#X obj 539 287 snapshot~;
#X obj 599 257 bang~;
#X obj 539 413 * 16000;
#X obj 786 -212 loadbang;
#X obj 539 438 pack f 10000;
#X obj 539 486 outlet;
#X obj 699 196 outlet~;
#X obj 756 196 outlet~;
#X obj 86 253 inlet~;
#X connect 1 0 83 1;
#X connect 2 0 18 0;
#X connect 3 0 19 0;
#X connect 4 0 20 0;
#X connect 5 0 21 0;
#X connect 6 0 22 0;
#X connect 7 0 23 0;
#X connect 8 0 24 0;
#X connect 9 0 25 0;
#X connect 10 0 26 0;
#X connect 11 0 27 0;
#X connect 12 0 28 0;
#X connect 13 0 29 0;
#X connect 14 0 30 0;
#X connect 15 0 31 0;
#X connect 16 0 32 0;
#X connect 17 0 33 0;
#X connect 18 0 1 0;
#X connect 18 0 66 0;
#X connect 19 0 34 0;
#X connect 19 0 66 0;
#X connect 20 0 35 0;
#X connect 20 0 66 0;
#X connect 21 0 36 0;
#X connect 21 0 66 0;
#X connect 22 0 37 0;
#X connect 22 0 66 0;
#X connect 23 0 38 0;
#X connect 23 0 66 0;
#X connect 24 0 39 0;
#X connect 24 0 66 0;
#X connect 25 0 40 0;
#X connect 25 0 66 0;
#X connect 26 0 41 0;
#X connect 26 0 66 0;
#X connect 27 0 42 0;
#X connect 27 0 66 0;
#X connect 28 0 43 0;
#X connect 28 0 66 0;
#X connect 29 0 44 0;
#X connect 29 0 66 0;
#X connect 30 0 45 0;
#X connect 30 0 66 0;
#X connect 31 0 46 0;
#X connect 31 0 66 0;
#X connect 32 0 47 0;
#X connect 32 0 66 0;
#X connect 33 0 48 0;
#X connect 33 0 66 0;
#X connect 34 0 83 2;
#X connect 34 0 87 0;
#X connect 35 0 83 3;
#X connect 35 0 86 0;
#X connect 36 0 83 4;
#X connect 36 0 86 0;
#X connect 37 0 83 5;
#X connect 37 0 85 0;
#X connect 38 0 83 6;
#X connect 38 0 85 0;
#X connect 39 0 83 7;
#X connect 39 0 84 0;
#X connect 40 0 83 8;
#X connect 40 0 84 0;
#X connect 41 0 83 9;
#X connect 41 0 84 0;
#X connect 42 0 83 10;
#X connect 42 0 84 0;
#X connect 43 0 83 11;
#X connect 43 0 85 0;
#X connect 44 0 83 12;
#X connect 44 0 85 0;
#X connect 45 0 83 13;
#X connect 45 0 86 0;
#X connect 46 0 83 14;
#X connect 46 0 86 0;
#X connect 47 0 83 15;
#X connect 47 0 87 0;
#X connect 48 0 83 16;
#X connect 48 0 87 0;
#X connect 65 0 83 0;
#X connect 67 0 64 0;
#X connect 68 0 63 0;
#X connect 69 0 62 0;
#X connect 70 0 61 0;
#X connect 71 0 60 0;
#X connect 72 0 59 0;
#X connect 73 0 58 0;
#X connect 74 0 57 0;
#X connect 75 0 56 0;
#X connect 76 0 55 0;
#X connect 77 0 54 0;
#X connect 78 0 53 0;
#X connect 79 0 52 0;
#X connect 80 0 51 0;
#X connect 81 0 50 0;
#X connect 83 0 94 0;
#X connect 83 1 81 0;
#X connect 83 2 80 0;
#X connect 83 3 79 0;
#X connect 83 4 78 0;
#X connect 83 5 77 0;
#X connect 83 6 76 0;
#X connect 83 7 75 0;
#X connect 83 8 74 0;
#X connect 83 9 73 0;
#X connect 83 10 72 0;
#X connect 83 11 71 0;
#X connect 83 12 70 0;
#X connect 83 13 69 0;
#X connect 83 14 68 0;
#X connect 83 15 67 0;
#X connect 84 0 100 0;
#X connect 84 0 109 0;
#X connect 85 0 100 0;
#X connect 85 0 110 0;
#X connect 86 0 100 0;
#X connect 86 0 109 0;
#X connect 87 0 100 0;
#X connect 87 0 110 0;
#X connect 88 0 18 1;
#X connect 88 0 19 1;
#X connect 88 0 20 1;
#X connect 88 0 21 1;
#X connect 88 0 22 1;
#X connect 88 0 23 1;
#X connect 88 0 24 1;
#X connect 88 0 25 1;
#X connect 88 0 26 1;
#X connect 88 0 27 1;
#X connect 88 0 28 1;
#X connect 88 0 29 1;
#X connect 88 0 30 1;
#X connect 88 0 31 1;
#X connect 88 0 32 1;
#X connect 88 0 33 1;
#X connect 88 0 2 0;
#X connect 88 0 3 0;
#X connect 88 0 4 0;
#X connect 88 0 5 0;
#X connect 88 0 6 0;
#X connect 88 0 7 0;
#X connect 88 0 8 0;
#X connect 88 0 9 0;
#X connect 88 0 10 0;
#X connect 88 0 11 0;
#X connect 88 0 12 0;
#X connect 88 0 13 0;
#X connect 88 0 14 0;
#X connect 88 0 15 0;
#X connect 88 0 16 0;
#X connect 88 0 17 0;
#X connect 89 0 90 0;
#X connect 90 0 65 0;
#X connect 91 0 92 0;
#X connect 92 0 95 0;
#X connect 93 0 91 0;
#X connect 94 0 49 0;
#X connect 95 0 105 0;
#X connect 96 0 67 1;
#X connect 96 0 68 1;
#X connect 96 0 69 1;
#X connect 96 0 70 1;
#X connect 96 0 71 1;
#X connect 96 0 72 1;
#X connect 96 0 73 1;
#X connect 96 0 74 1;
#X connect 96 0 75 1;
#X connect 96 0 76 1;
#X connect 96 0 77 1;
#X connect 96 0 78 1;
#X connect 96 0 79 1;
#X connect 96 0 80 1;
#X connect 96 0 81 1;
#X connect 96 0 94 1;
#X connect 96 0 108 0;
#X connect 97 0 49 0;
#X connect 97 0 50 0;
#X connect 97 0 51 0;
#X connect 97 0 52 0;
#X connect 97 0 53 0;
#X connect 97 0 54 0;
#X connect 97 0 55 0;
#X connect 97 0 56 0;
#X connect 97 0 57 0;
#X connect 97 0 58 0;
#X connect 97 0 59 0;
#X connect 97 0 60 0;
#X connect 97 0 61 0;
#X connect 97 0 62 0;
#X connect 97 0 63 0;
#X connect 97 0 64 0;
#X connect 98 0 99 0;
#X connect 99 0 87 1;
#X connect 99 0 86 1;
#X connect 99 0 85 1;
#X connect 99 0 84 1;
#X connect 100 0 101 0;
#X connect 101 0 102 0;
#X connect 102 0 103 0;
#X connect 103 0 93 0;
#X connect 104 0 103 0;
#X connect 105 0 107 0;
#X connect 106 0 88 0;
#X connect 107 0 96 0;
#X connect 111 0 97 0;
