#N canvas 769 296 664 450 10;
#X obj 40 236 *~;
#X obj 39 354 *~;
#X obj 40 66 sig~;
#X obj 54 329 osc~;
#X obj 38 397 outlet~;
#X obj 127 38 inlet frequency;
#X obj 40 38 inlet envSize;
#X obj 225 38 inlet~ envTrig;
#X obj 40 96 *~ 4096;
#X obj 40 264 tabread4~ expDec;
#X connect 0 0 9 0;
#X connect 1 0 4 0;
#X connect 2 0 8 0;
#X connect 3 0 1 1;
#X connect 5 0 3 0;
#X connect 6 0 2 0;
#X connect 7 0 0 1;
#X connect 8 0 0 0;
#X connect 9 0 1 0;
