#N canvas 1 77 1512 778 10;
#X obj -470 384 *~ 0.25;
#X obj -862 374 *~ 0.25;
#X obj -1141 391 *~ 0.25;
#X obj -1462 404 *~ 0.25;
#N canvas 1104 77 450 406 RateDensity 0;
#X obj 8 303 outlet~;
#X obj 66 113 inlet rate;
#X obj 84 150 inlet density;
#X obj 8 135 metro;
#X obj 8 113 loadbang;
#N canvas 1117 518 450 201 density 0;
#X obj 98 11 inlet density;
#X obj 9 11 inlet trigger;
#X obj 9 41 random 1000;
#X obj 9 66 / 10;
#X obj 9 90 moses 100;
#X obj 9 117 t b;
#X obj 9 143 outlet;
#X connect 0 0 4 1;
#X connect 1 0 2 0;
#X connect 2 0 3 0;
#X connect 3 0 4 0;
#X connect 4 0 5 0;
#X connect 5 0 6 0;
#X restore 8 167 pd density;
#X obj 8 222 f \$1;
#X obj 8 274 vline~;
#X obj 102 223 outlet trigger;
#X msg 8 248 0 \, 1 \$1 0;
#X connect 1 0 3 1;
#X connect 1 0 6 1;
#X connect 2 0 5 1;
#X connect 3 0 5 0;
#X connect 4 0 3 0;
#X connect 5 0 8 0;
#X connect 5 0 6 0;
#X connect 6 0 9 0;
#X connect 7 0 0 0;
#X connect 9 0 7 0;
#X restore -1357 309 pd RateDensity;
#N canvas 1100 77 450 406 RateDensity 0;
#X obj 8 303 outlet~;
#X obj 66 113 inlet rate;
#X obj 84 150 inlet density;
#X obj 8 135 metro;
#X obj 8 113 loadbang;
#N canvas 1117 518 450 201 density 0;
#X obj 98 11 inlet density;
#X obj 9 11 inlet trigger;
#X obj 9 41 random 1000;
#X obj 9 66 / 10;
#X obj 9 90 moses 100;
#X obj 9 117 t b;
#X obj 9 143 outlet;
#X connect 0 0 4 1;
#X connect 1 0 2 0;
#X connect 2 0 3 0;
#X connect 3 0 4 0;
#X connect 4 0 5 0;
#X connect 5 0 6 0;
#X restore 8 167 pd density;
#X obj 8 222 f \$1;
#X obj 8 274 vline~;
#X obj 102 223 outlet trigger;
#X msg 8 248 0 \, 1 \$1 0;
#X connect 1 0 3 1;
#X connect 1 0 6 1;
#X connect 2 0 5 1;
#X connect 3 0 5 0;
#X connect 4 0 3 0;
#X connect 5 0 8 0;
#X connect 5 0 6 0;
#X connect 6 0 9 0;
#X connect 7 0 0 0;
#X connect 9 0 7 0;
#X restore -758 270 pd RateDensity;
#X obj -677 173 loadbang;
#X obj -677 196 100;
#X obj -758 169 / 10000;
#X obj -1276 260 loadbang;
#X obj -1276 283 100;
#X obj -1460 186 / 10000;
#X obj -1106 340 * 980;
#X obj -1460 214 pack f 20000;
#X obj -1460 238 line;
#X obj -1410 334 * 1000;
#X obj -1106 298 pack f 20000;
#X obj -1106 318 line;
#X obj -419 266 pack f 20000;
#X obj -419 286 line;
#X obj -839 244 pack f 20000;
#X obj -839 269 line;
#X obj -758 197 * -1;
#N canvas 857 238 482 449 pan 0;
#X obj 135 -1422 *~;
#X obj 36 -1422 *~;
#X obj 151 -1606 sig~;
#X obj 152 -1583 lop~ 1;
#X obj 151 -1511 cos~;
#X obj 53 -1478 -~ 0.25;
#X obj 152 -1534 -~ 0.25;
#X obj 151 -1558 *~ 0.25;
#X obj 52 -1450 cos~;
#X obj 135 -1335 outlet~ rout;
#X obj 37 -1336 outlet~ lout;
#X obj 37 -1649 inlet~ signal;
#X obj 151 -1648 inlet pan amnt;
#X obj 289 -1647 inlet;
#X obj 134 -1386 *~;
#X obj 289 -1495 * 0.5;
#X obj 289 -1474 + 0.5;
#X obj 289 -1453 sig~;
#X obj 289 -1433 lop~ 0.9;
#X obj 36 -1386 *~;
#X connect 0 0 14 0;
#X connect 1 0 19 0;
#X connect 2 0 3 0;
#X connect 3 0 7 0;
#X connect 4 0 0 1;
#X connect 5 0 8 0;
#X connect 6 0 4 0;
#X connect 6 0 5 0;
#X connect 7 0 6 0;
#X connect 8 0 1 1;
#X connect 11 0 1 0;
#X connect 11 0 0 0;
#X connect 12 0 2 0;
#X connect 13 0 15 0;
#X connect 14 0 9 0;
#X connect 15 0 16 0;
#X connect 16 0 17 0;
#X connect 17 0 18 0;
#X connect 18 0 14 1;
#X connect 18 0 19 1;
#X connect 19 0 10 0;
#X restore -1140 508 pd pan;
#N canvas 859 239 495 326 pan 0;
#X obj 135 -1422 *~;
#X obj 36 -1422 *~;
#X obj 151 -1606 sig~;
#X obj 152 -1583 lop~ 1;
#X obj 151 -1511 cos~;
#X obj 53 -1478 -~ 0.25;
#X obj 152 -1534 -~ 0.25;
#X obj 151 -1558 *~ 0.25;
#X obj 52 -1450 cos~;
#X obj 135 -1355 outlet~ rout;
#X obj 37 -1356 outlet~ lout;
#X obj 37 -1649 inlet~ signal;
#X obj 151 -1648 inlet pan amnt;
#X obj 283 -1645 inlet;
#X obj 283 -1612 * -1;
#X obj 283 -1582 + 1;
#X obj 283 -1505 * 0.5;
#X obj 283 -1484 + 0.5;
#X obj 283 -1463 sig~;
#X obj 283 -1443 lop~ 0.9;
#X obj 36 -1386 *~;
#X obj 134 -1386 *~;
#X connect 0 0 21 0;
#X connect 1 0 20 0;
#X connect 2 0 3 0;
#X connect 3 0 7 0;
#X connect 4 0 0 1;
#X connect 5 0 8 0;
#X connect 6 0 4 0;
#X connect 6 0 5 0;
#X connect 7 0 6 0;
#X connect 8 0 1 1;
#X connect 11 0 1 0;
#X connect 11 0 0 0;
#X connect 12 0 2 0;
#X connect 13 0 14 0;
#X connect 14 0 15 0;
#X connect 15 0 16 0;
#X connect 16 0 17 0;
#X connect 17 0 18 0;
#X connect 18 0 19 0;
#X connect 19 0 21 1;
#X connect 19 0 20 1;
#X connect 20 0 10 0;
#X connect 21 0 9 0;
#X restore -470 557 pd pan;
#X floatatom -417 559 5 0 0 0 - - -;
#X obj -437 481 * -1;
#X obj -437 505 + 1;
#X obj -1107 484 * 10;
#X obj -437 529 * 10.25;
#X obj -811 319 * 700;
#X obj -419 309 * 655;
#X obj -758 218 + 1.78;
#X obj -1503 263 * 2;
#X obj -1141 317 * 3;
#X obj -863 244 * 3;
#X obj -471 266 * 2;
#X obj -1357 285 * 101;
#X obj -758 244 * 100;
#X obj -1171 45 centroidFeedbackReverb;
#X obj -1171 72 s centroid;
#X obj -758 144 r centroid;
#X obj -1460 161 r centroid;
#X obj -441 406 throw~ toFeedback;
#X obj -801 398 throw~ toFeedback;
#X obj -1107 414 throw~ toFeedback;
#X obj -1423 426 throw~ toFeedback;
#X obj -1172 17 catch~ toFeedback;
#X obj -419 243 / 10000;
#X obj -419 220 r centroid;
#X text -336 267 frequency;
#X text -667 270 rate and density;
#X text -489 245 formant;
#X obj -839 295 s rotate01;
#X obj -437 460 / 10000;
#X obj -437 437 r centroid;
#X obj -1106 274 / 10000;
#X obj -1106 252 r centroid;
#X obj -1107 462 / 10000;
#X obj -1107 437 r centroid;
#X obj -1460 263 s rotate02;
#X text -1191 90 range approx 6 - 9 k;
#X text -1433 128 voice 1;
#X text -1088 226 voice 2;
#X text -743 122 voice 3;
#X text -413 190 voice 4;
#X obj -1047 462 - 6000;
#X obj -1047 484 / 3000;
#X obj -863 476 *~;
#X obj -1463 523 *~;
#X obj -964 537 rev3~ 80 85 3000 20;
#X obj -1033 18 adc~;
#X obj -1201 641 *~ 2;
#X obj -1152 641 *~ 2;
#X obj -1449 447 r centroid;
#N canvas 498 448 450 300 ampScale 0;
#X obj -1372 168 * 0.5;
#X obj -1372 189 + 0.5;
#X obj -1372 210 sig~;
#X obj -1372 230 lop~ 0.9;
#X obj -1372 78 - 6000;
#X obj -1372 100 / 3000;
#X obj -1372 120 * -1;
#X obj -1372 140 + 1;
#X obj -1372 57 pipe 500;
#X obj -1372 24 inlet;
#X obj -1372 258 outlet~;
#X text -1313 98 scale amplitude of voice;
#X connect 0 0 1 0;
#X connect 1 0 2 0;
#X connect 2 0 3 0;
#X connect 3 0 10 0;
#X connect 4 0 5 0;
#X connect 5 0 6 0;
#X connect 6 0 7 0;
#X connect 7 0 0 0;
#X connect 8 0 4 0;
#X connect 9 0 8 0;
#X restore -1449 473 pd ampScale;
#X obj -1201 672 dac~;
#N canvas 1 239 670 289 processingSends 0;
#X floatatom -109 128 5 0 0 0 - - -;
#X floatatom -7 137 5 0 0 0 - - -;
#X obj -195 71 * -1;
#X obj -195 93 + 1;
#X floatatom -128 99 5 0 0 0 - - -;
#X obj -195 47 pipe 2000;
#X obj -195 24 r rotate01;
#X obj -57 98 r rotate02;
#X obj -195 165 s rightRotate;
#X obj -57 167 s leftRotate;
#X text -134 68 send rotation value to processing;
#X obj -195 114 * 720;
#X obj -195 134 - 50;
#X obj -57 120 * 720;
#X obj -57 140 - 110;
#X obj -310 24 r centroid;
#X obj -310 49 - 6000;
#X obj -310 71 / 3000;
#X obj -310 100 s centroidScale;
#X connect 2 0 3 0;
#X connect 3 0 4 0;
#X connect 3 0 11 0;
#X connect 5 0 2 0;
#X connect 6 0 5 0;
#X connect 7 0 13 0;
#X connect 11 0 0 0;
#X connect 11 0 12 0;
#X connect 12 0 8 0;
#X connect 13 0 1 0;
#X connect 13 0 14 0;
#X connect 14 0 9 0;
#X connect 15 0 16 0;
#X connect 16 0 17 0;
#X connect 17 0 18 0;
#X restore -1295 17 pd processingSends;
#X obj -1141 369 pulsarVoiceNoMetro;
#X obj -1178 117 atc-expDec;
#X obj -1462 382 pulsarVoiceNoMetro;
#X obj -471 361 pulsarVoiceNoMetro;
#X obj -863 351 pulsarVoiceNoMetro;
#N canvas 347 422 450 300 ampScale 0;
#X obj -711 155 * 0.5;
#X obj -711 176 + 0.5;
#X obj -711 197 sig~;
#X obj -711 217 lop~ 0.9;
#X obj -711 72 pipe 1000;
#X obj -711 93 - 6000;
#X obj -711 115 / 3000;
#X obj -711 42 inlet;
#X obj -711 252 outlet~;
#X connect 0 0 1 0;
#X connect 1 0 2 0;
#X connect 2 0 3 0;
#X connect 3 0 8 0;
#X connect 4 0 5 0;
#X connect 5 0 6 0;
#X connect 6 0 0 0;
#X connect 7 0 4 0;
#X restore -848 449 pd ampScale;
#X obj -848 421 r centroid;
#X text -873 26 4 voices - pulsar inputs from l-r = formant \, oscillator
frequency \, rate;
#X text -875 62 Voices 2 and 4 have modulated panning. 1 and 3 are
panned hard left and right respectively;
#X text -380 494 mod panning;
#X connect 0 0 24 0;
#X connect 0 0 43 0;
#X connect 0 0 70 0;
#X connect 1 0 44 0;
#X connect 1 0 68 0;
#X connect 2 0 23 0;
#X connect 2 0 45 0;
#X connect 2 0 70 0;
#X connect 3 0 46 0;
#X connect 3 0 69 0;
#X connect 4 0 78 2;
#X connect 4 0 80 2;
#X connect 5 0 81 2;
#X connect 5 0 82 2;
#X connect 6 0 7 0;
#X connect 7 0 5 1;
#X connect 8 0 20 0;
#X connect 8 0 22 0;
#X connect 8 0 35 0;
#X connect 9 0 10 0;
#X connect 10 0 4 1;
#X connect 11 0 13 0;
#X connect 11 0 33 0;
#X connect 11 0 37 0;
#X connect 12 0 78 1;
#X connect 13 0 14 0;
#X connect 14 0 15 0;
#X connect 14 0 60 0;
#X connect 15 0 80 1;
#X connect 16 0 17 0;
#X connect 17 0 12 0;
#X connect 18 0 19 0;
#X connect 19 0 31 0;
#X connect 20 0 21 0;
#X connect 21 0 30 0;
#X connect 21 0 53 0;
#X connect 22 0 32 0;
#X connect 23 0 72 0;
#X connect 23 1 73 0;
#X connect 24 0 72 0;
#X connect 24 1 73 0;
#X connect 26 0 27 0;
#X connect 27 0 29 0;
#X connect 28 0 23 1;
#X connect 29 0 24 1;
#X connect 29 0 25 0;
#X connect 30 0 82 1;
#X connect 31 0 81 1;
#X connect 32 0 38 0;
#X connect 33 0 80 0;
#X connect 34 0 78 0;
#X connect 35 0 82 0;
#X connect 36 0 81 0;
#X connect 37 0 4 0;
#X connect 38 0 5 0;
#X connect 39 0 40 0;
#X connect 41 0 8 0;
#X connect 42 0 11 0;
#X connect 47 0 39 0;
#X connect 48 0 18 0;
#X connect 48 0 36 0;
#X connect 49 0 48 0;
#X connect 54 0 26 0;
#X connect 55 0 54 0;
#X connect 56 0 16 0;
#X connect 56 0 34 0;
#X connect 57 0 56 0;
#X connect 58 0 28 0;
#X connect 59 0 58 0;
#X connect 59 0 66 0;
#X connect 66 0 67 0;
#X connect 67 0 23 2;
#X connect 68 0 70 0;
#X connect 68 0 73 0;
#X connect 69 0 70 0;
#X connect 69 0 72 0;
#X connect 70 0 72 0;
#X connect 70 1 73 0;
#X connect 71 0 39 0;
#X connect 72 0 76 0;
#X connect 73 0 76 1;
#X connect 74 0 75 0;
#X connect 75 0 69 1;
#X connect 78 0 2 0;
#X connect 80 0 3 0;
#X connect 81 0 0 0;
#X connect 82 0 1 0;
#X connect 83 0 68 1;
#X connect 84 0 83 0;
